<svg xmlns="http://www.w3.org/2000/svg" width="800" height="470" font-family="-apple-system,Segoe UI,Roboto,sans-serif">
<rect width="800" height="470" fill="#ffffff"/>
<text x="66" y="34" font-size="19" font-weight="700" fill="#111">Cost vs quality</text>
<text x="66" y="54" font-size="12.5" fill="#666">Each design at its true cost and quality — the panel tier and the verify-loop are the levers.</text>
<line x1="66" y1="400.0" x2="752.0" y2="400.0" stroke="#333" stroke-width="1.2"/>
<line x1="66" y1="76" x2="66" y2="400.0" stroke="#333" stroke-width="1.2"/>
<line x1="66.0" y1="400.0" x2="66.0" y2="405.0" stroke="#333"/>
<text x="66.0" y="419.0" text-anchor="middle" font-size="11.5" fill="#555">0u</text>
<line x1="175.8" y1="400.0" x2="175.8" y2="405.0" stroke="#333"/>
<text x="175.8" y="419.0" text-anchor="middle" font-size="11.5" fill="#555">2u</text>
<line x1="285.5" y1="400.0" x2="285.5" y2="405.0" stroke="#333"/>
<text x="285.5" y="419.0" text-anchor="middle" font-size="11.5" fill="#555">4u</text>
<line x1="395.3" y1="400.0" x2="395.3" y2="405.0" stroke="#333"/>
<text x="395.3" y="419.0" text-anchor="middle" font-size="11.5" fill="#555">6u</text>
<line x1="505.0" y1="400.0" x2="505.0" y2="405.0" stroke="#333"/>
<text x="505.0" y="419.0" text-anchor="middle" font-size="11.5" fill="#555">8u</text>
<line x1="614.8" y1="400.0" x2="614.8" y2="405.0" stroke="#333"/>
<text x="614.8" y="419.0" text-anchor="middle" font-size="11.5" fill="#555">10u</text>
<line x1="724.6" y1="400.0" x2="724.6" y2="405.0" stroke="#333"/>
<text x="724.6" y="419.0" text-anchor="middle" font-size="11.5" fill="#555">12u</text>
<text x="409.0" y="440.0" text-anchor="middle" font-size="12.5" fill="#475569">relative cost (compute units)</text>
<text x="409.0" y="456.0" text-anchor="middle" font-size="10.5" fill="#94a3b8">u: Sonnet draft 0.3 · Opus draft 1.0 · Opus-max call 1.2</text>
<line x1="61.0" y1="400.0" x2="66" y2="400.0" stroke="#333"/>
<text x="57.0" y="404.0" text-anchor="end" font-size="11.5" fill="#555">40</text>
<line x1="61.0" y1="348.4" x2="66" y2="348.4" stroke="#333"/>
<text x="57.0" y="352.4" text-anchor="end" font-size="11.5" fill="#555">50</text>
<line x1="61.0" y1="296.8" x2="66" y2="296.8" stroke="#333"/>
<text x="57.0" y="300.8" text-anchor="end" font-size="11.5" fill="#555">60</text>
<line x1="61.0" y1="245.2" x2="66" y2="245.2" stroke="#333"/>
<text x="57.0" y="249.2" text-anchor="end" font-size="11.5" fill="#555">70</text>
<line x1="61.0" y1="193.5" x2="66" y2="193.5" stroke="#333"/>
<text x="57.0" y="197.5" text-anchor="end" font-size="11.5" fill="#555">80</text>
<line x1="61.0" y1="141.9" x2="66" y2="141.9" stroke="#333"/>
<text x="57.0" y="145.9" text-anchor="end" font-size="11.5" fill="#555">90</text>
<line x1="61.0" y1="90.3" x2="66" y2="90.3" stroke="#333"/>
<text x="57.0" y="94.3" text-anchor="end" font-size="11.5" fill="#555">100</text>
<text x="22" y="240.0" text-anchor="middle" font-size="12.5" fill="#475569" transform="rotate(-90 22 240.0)">relative quality</text>
<line x1="66" y1="348.4" x2="752.0" y2="348.4" stroke="#cbd5e1" stroke-width="1" stroke-dasharray="4 4"/>
<text x="752.0" y="342.4" text-anchor="end" font-size="10" fill="#94a3b8">single self-verify pass = 50</text>
<polyline points="131.9,348.4 296.5,172.9 691.6,111.0" fill="none" stroke="#16a34a" stroke-width="2" opacity="0.55" stroke-dasharray="6 4"/>
<circle cx="131.9" cy="348.4" r="8" fill="#64748b"/>
<text x="123.9" y="334.4" text-anchor="start" font-size="13" font-weight="700" fill="#111">Single pass</text>
<circle cx="181.2" cy="348.4" r="8" fill="#ea580c"/>
<text x="173.2" y="370.4" text-anchor="start" font-size="13" font-weight="700" fill="#111">Sonnet panel</text>
<circle cx="296.5" cy="172.9" r="8" fill="#7c3aed"/>
<text x="310.5" y="177.9" text-anchor="start" font-size="13" font-weight="700" fill="#111">Opus panel</text>
<circle cx="691.6" cy="111.0" r="8" fill="#16a34a"/>
<text x="677.6" y="129.0" text-anchor="end" font-size="13" font-weight="700" fill="#111">Opus panel + verify-loop</text>
</svg>