<svg xmlns="http://www.w3.org/2000/svg" width="940" height="520" font-family="-apple-system,Segoe UI,Roboto,sans-serif">
<rect width="940" height="520" fill="#ffffff"/>
<text x="92" y="42" font-size="26" font-weight="700" fill="#111"><tspan font-family="ui-monospace,SFMono-Regular,Menlo,Consolas,monospace">claude-ensemble</tspan>: cost vs correctness</text>
<text x="92" y="70" font-size="15.5" fill="#666">Length-controlled: the panel tier is a lateral move; the verify-loop is the lever on checkable work.</text>
<line x1="92" y1="446.0" x2="886.0" y2="446.0" stroke="#333" stroke-width="1.3"/>
<line x1="92" y1="102" x2="92" y2="446.0" stroke="#333" stroke-width="1.3"/>
<line x1="92.0" y1="446.0" x2="92.0" y2="451.0" stroke="#333"/>
<text x="92.0" y="469.0" text-anchor="middle" font-size="14" fill="#555">0×</text>
<line x1="205.4" y1="446.0" x2="205.4" y2="451.0" stroke="#333"/>
<text x="205.4" y="469.0" text-anchor="middle" font-size="14" fill="#555">1×</text>
<line x1="318.9" y1="446.0" x2="318.9" y2="451.0" stroke="#333"/>
<text x="318.9" y="469.0" text-anchor="middle" font-size="14" fill="#555">2×</text>
<line x1="432.3" y1="446.0" x2="432.3" y2="451.0" stroke="#333"/>
<text x="432.3" y="469.0" text-anchor="middle" font-size="14" fill="#555">3×</text>
<line x1="545.7" y1="446.0" x2="545.7" y2="451.0" stroke="#333"/>
<text x="545.7" y="469.0" text-anchor="middle" font-size="14" fill="#555">4×</text>
<line x1="659.1" y1="446.0" x2="659.1" y2="451.0" stroke="#333"/>
<text x="659.1" y="469.0" text-anchor="middle" font-size="14" fill="#555">5×</text>
<line x1="772.6" y1="446.0" x2="772.6" y2="451.0" stroke="#333"/>
<text x="772.6" y="469.0" text-anchor="middle" font-size="14" fill="#555">6×</text>
<line x1="886.0" y1="446.0" x2="886.0" y2="451.0" stroke="#333"/>
<text x="886.0" y="469.0" text-anchor="middle" font-size="14" fill="#555">7×</text>
<text x="489.0" y="498.0" text-anchor="middle" font-size="15" fill="#475569">relative cost (compute units, indicative)</text>
<line x1="87.0" y1="446.0" x2="92" y2="446.0" stroke="#333"/>
<text x="81.0" y="451.0" text-anchor="end" font-size="14" fill="#555">40</text>
<line x1="87.0" y1="391.5" x2="92" y2="391.5" stroke="#333"/>
<text x="81.0" y="396.5" text-anchor="end" font-size="14" fill="#555">50</text>
<line x1="87.0" y1="337.0" x2="92" y2="337.0" stroke="#333"/>
<text x="81.0" y="342.0" text-anchor="end" font-size="14" fill="#555">60</text>
<line x1="87.0" y1="282.5" x2="92" y2="282.5" stroke="#333"/>
<text x="81.0" y="287.5" text-anchor="end" font-size="14" fill="#555">70</text>
<line x1="87.0" y1="227.9" x2="92" y2="227.9" stroke="#333"/>
<text x="81.0" y="232.9" text-anchor="end" font-size="14" fill="#555">80</text>
<line x1="87.0" y1="173.4" x2="92" y2="173.4" stroke="#333"/>
<text x="81.0" y="178.4" text-anchor="end" font-size="14" fill="#555">90</text>
<line x1="87.0" y1="118.9" x2="92" y2="118.9" stroke="#333"/>
<text x="81.0" y="123.9" text-anchor="end" font-size="14" fill="#555">100</text>
<text x="26" y="277.0" text-anchor="middle" font-size="15" fill="#475569" transform="rotate(-90 26 277.0)">relative correctness (illustrative)</text>
<line x1="92" y1="391.5" x2="886.0" y2="391.5" stroke="#e2e8f0" stroke-width="1" stroke-dasharray="4 4"/>
<text x="886.0" y="383.5" text-anchor="end" font-size="14" fill="#cbd5e1">single-pass baseline</text>
<polyline points="205.4,391.5 341.5,386.0 704.5,304.3" fill="none" stroke="#16a34a" stroke-width="2.4" opacity="0.5" stroke-dasharray="6 4"/>
<text x="381.2" y="271.5" font-size="14.5" font-weight="700" font-style="italic" fill="#16a34a">verify-loop: the real lever</text>
<text x="381.2" y="290.5" font-size="14" fill="#16a34a">~halves defects on checkable reasoning</text>
<circle cx="205.4" cy="391.5" r="9" fill="#64748b"/>
<text x="201.4" y="361.5" text-anchor="start" font-size="16.5" font-weight="700" fill="#111">Single strong pass</text>
<text x="201.4" y="379.5" text-anchor="start" font-size="14" fill="#94a3b8">one high-effort pass</text>
<circle cx="341.5" cy="386.0" r="9" fill="#2563eb"/>
<text x="341.5" y="416.0" text-anchor="middle" font-size="16.5" font-weight="700" fill="#111">Sonnet-5 panel</text>
<text x="341.5" y="434.0" text-anchor="middle" font-size="14" fill="#94a3b8">≈ single, ~0.4× cost → the default</text>
<circle cx="568.4" cy="380.6" r="8" fill="#fff" stroke="#7c3aed" stroke-width="2.6"/>
<text x="568.4" y="350.6" text-anchor="middle" font-size="16.5" font-weight="700" fill="#94a3b8">Opus panel</text>
<text x="568.4" y="368.6" text-anchor="middle" font-size="14" fill="#94a3b8">gate-routed: hardest checkable only</text>
<circle cx="704.5" cy="304.3" r="9" fill="#16a34a"/>
<text x="718.5" y="308.3" text-anchor="start" font-size="16.5" font-weight="700" fill="#111">+ verify-loop</text>
<text x="718.5" y="326.3" text-anchor="start" font-size="14" fill="#94a3b8">checkable reasoning — the lever</text>
<text x="92" y="514.0" font-size="14" fill="#94a3b8">Gate: simple work → one pass; complex → Sonnet-5 panel + Opus judge + verify-loop. y is illustrative, not an absolute score.</text>
</svg>